<?xml version="1.0" encoding="utf-8"?>
<!-- Generator: Adobe Illustrator 18.1.1, SVG Export Plug-In . SVG Version: 6.00 Build 0)  -->
<svg version="1.1" id="Layer_1" xmlns="http://www.w3.org/2000/svg" xmlns:xlink="http://www.w3.org/1999/xlink" x="0px" y="0px"
	 width="340px" height="364.9px" viewBox="0 0 340 364.9" enable-background="new 0 0 340 364.9" xml:space="preserve">
<g>
	<path fill="#F70C36" d="M159.4,247.6h-7.1v20.7h6.9c4,0,7-0.9,8.9-2.8c1.9-1.9,2.9-4.4,2.9-7.6c0-3.2-1-5.7-3-7.5
		C165.9,248.5,163.1,247.6,159.4,247.6L159.4,247.6z M165.4,263.2c-1.3,1.2-3.3,1.8-5.8,1.8h-3.9v-14.2h3.5c5.4,0,8.2,2.4,8.2,7.1
		C167.4,260.3,166.7,262,165.4,263.2z"/>
	<path fill="#F70C36" d="M178.4,247.6v20.7h14.9V265h-11.4v-5.5h9.9v-3.1h-9.9v-5.5H193v-3.3H178.4z"/>
	<path fill="#F70C36" d="M214.9,250.8v-3.2h-16.1v3.2h6.3v17.5h3.5v-17.5H214.9z"/>
	<path fill="#F70C36" d="M221.6,247.6v20.7h14.9V265h-11.4v-5.5h9.9v-3.1h-9.9v-5.5h11.1v-3.3H221.6z"/>
	<path fill="#F70C36" d="M248.4,263c-1.4-1.4-2.1-3.2-2.1-5.3c0-2.1,0.7-3.8,2.1-5.2c1.4-1.4,3.2-2,5.3-2c1.2,0,2.2,0.2,3.1,0.6
		c0.9,0.4,1.8,1,2.8,2l2.2-2.4c-2.2-2.4-4.8-3.6-8-3.6c-3.2,0-5.9,1-8,3.1c-2.1,2.1-3.2,4.6-3.2,7.7c0,3.1,1,5.6,3.1,7.6
		c2.1,2,4.7,3,7.8,3c3.1,0,5.8-1.2,8-3.6l-2.3-2.3c-0.9,0.9-1.9,1.5-2.7,1.9c-0.9,0.4-1.9,0.6-3.1,0.6
		C251.5,265.1,249.8,264.4,248.4,263z"/>
	<path fill="#F70C36" d="M282.9,250.8v-3.2h-16.1v3.2h6.3v17.5h3.5v-17.5H282.9z"/>
	<path fill="#F70C36" d="M289.6,247.6v20.7h14.9V265h-11.4v-5.5h9.9v-3.1h-9.9v-5.5h11.1v-3.3H289.6z"/>
	<path fill="#F70C36" d="M319.1,247.6H312v20.7h6.9c4,0,7-0.9,8.9-2.8c1.9-1.9,2.9-4.4,2.9-7.6c0-3.2-1-5.7-3-7.5
		C325.7,248.5,322.8,247.6,319.1,247.6L319.1,247.6z M325.1,263.2c-1.3,1.2-3.3,1.8-5.8,1.8h-3.9v-14.2h3.5c5.4,0,8.2,2.4,8.2,7.1
		C327.1,260.3,326.5,262,325.1,263.2z"/>
</g>
<g>
	<path fill="#F70C36" d="M18.8,136.9h-6.7l9.6,27.6h4.6l6-19.2l6,19.2H43l9.6-27.6H46l-5.5,15.9l-4.9-15.9h-6.4l-4.9,15.9
		L18.8,136.9z"/>
	<path fill="#F70C36" d="M84.7,164.6l-11.9-27.6h-6l-11.9,27.6h6.6l2.6-6h11.6l2.6,6H84.7z M73.2,153.2h-6.9l3.5-8L73.2,153.2z"/>
	<path fill="#F70C36" d="M111.5,139.1c-1.8-1.4-4.9-2.2-9.2-2.2H91.8v27.6H98v-8.8h4.3l6.1,8.8h7.6l-7-9.9c3.5-1.3,5.3-4.2,5.3-8.6
		C114.2,142.9,113.3,140.6,111.5,139.1z M102.5,150.4H98v-8.2h4.6c2,0,3.4,0.3,4.2,0.8c0.8,0.6,1.2,1.6,1.2,3.1
		c0,1.5-0.4,2.6-1.1,3.3C106,150.1,104.6,150.4,102.5,150.4L102.5,150.4z"/>
	<path fill="#F70C36" d="M143.8,154.7l-13.6-17.8h-5.8v27.6h6.2v-17.3l13.2,17.3h6.2v-27.6h-6.2V154.7z"/>
	<path fill="#F70C36" d="M160.8,164.6h6.2v-27.6h-6.2V164.6z"/>
	<path fill="#F70C36" d="M197,154.7l-13.6-17.8h-5.8v27.6h6.2v-17.3l13.2,17.3h6.2v-27.6H197V154.7z"/>
	<path fill="#F70C36" d="M231.9,158.1c-1.4,0.8-3.2,1.2-5.3,1.2c-2.1,0-4-0.8-5.5-2.4c-1.5-1.6-2.3-3.7-2.3-6.3
		c0-2.6,0.8-4.7,2.4-6.3c1.6-1.6,3.6-2.4,5.9-2.4c1.2,0,2.3,0.2,3.4,0.6c1,0.4,2.2,1.2,3.4,2.2l3.2-4.6c-2.9-2.6-6.4-3.9-10.3-3.9
		c-4,0-7.4,1.4-10.2,4.1c-2.8,2.7-4.2,6.2-4.2,10.3c0,4.1,1.4,7.5,4.1,10.2c2.8,2.7,6.2,4,10.2,4c4.8,0,8.6-1.5,11.4-4.6v-9.8h-6.2
		V158.1z"/>
</g>
<path fill-rule="evenodd" clip-rule="evenodd" fill="#FFFFFF" d="M2.9,287.6h336v2H2.9V287.6z"/>
<g>
	<path fill="#FFFFFF" d="M11.8,311.4v-1.7H3.2v1.7h3.4v9.3h1.9v-9.3H11.8z"/>
	<path fill="#FFFFFF" d="M17.2,320.7v-4.5h5.5v4.5h1.9v-11.1h-1.9v4.8h-5.5v-4.8h-1.9v11.1H17.2z"/>
	<path fill="#FFFFFF" d="M29.2,320.7h1.9v-11.1h-1.9V320.7z"/>
	<path fill="#FFFFFF" d="M40.7,311.4c0.6,0.2,1,0.4,1.3,0.7l1-1.4c-0.5-0.4-1.1-0.7-1.8-1c-0.7-0.2-1.4-0.3-2.1-0.3
		c-1.1,0-2,0.3-2.8,0.8c-0.7,0.6-1.1,1.3-1.1,2.4c0,1,0.3,1.8,1,2.3c0.3,0.3,0.7,0.5,1.1,0.6c0.4,0.2,1,0.3,1.8,0.5
		c0.8,0.2,1.4,0.4,1.7,0.6c0.3,0.2,0.5,0.6,0.5,1c0,0.4-0.2,0.8-0.5,1c-0.4,0.3-0.8,0.4-1.4,0.4c-1.2,0-2.4-0.5-3.5-1.5l-1.2,1.4
		c1.3,1.2,2.9,1.8,4.6,1.8c1.2,0,2.1-0.3,2.9-0.9c0.7-0.6,1.1-1.4,1.1-2.3c0-1-0.3-1.7-0.9-2.2c-0.6-0.5-1.4-0.9-2.6-1.2
		c-1.1-0.3-1.9-0.5-2.2-0.8c-0.3-0.2-0.5-0.6-0.5-1c0-0.4,0.2-0.8,0.5-1c0.3-0.2,0.8-0.3,1.3-0.3C39.6,311.1,40.2,311.2,40.7,311.4z
		"/>
	<path fill="#FFFFFF" d="M53.9,309.7h-2l3.9,11.1h1.8l2.3-7.6H60l2.3,7.6h1.8l3.9-11.1h-2l-2.8,8l-2.5-8h-1.7l-2.5,8L53.9,309.7z"/>
	<path fill="#FFFFFF" d="M71.3,309.7v11.1h8V319h-6.1v-3h5.3v-1.7h-5.3v-2.9h5.9v-1.8H71.3z"/>
	<path fill="#FFFFFF" d="M91.3,319.7c0.5-0.6,0.8-1.3,0.8-2c0-0.7-0.2-1.3-0.6-1.7c-0.4-0.5-1-0.8-1.6-0.9c0.2-0.1,0.3-0.1,0.4-0.2
		c0.1,0,0.2-0.1,0.4-0.3c0.5-0.4,0.8-1.1,0.8-1.9c0-0.7-0.3-1.4-0.8-1.9c-0.3-0.3-0.7-0.5-1.2-0.7c-0.5-0.2-1.2-0.3-1.9-0.3h-4.3
		v11.1h4.8C89.6,320.7,90.7,320.4,91.3,319.7L91.3,319.7z M85.1,311.4h2.4c0.7,0,1.2,0.1,1.5,0.3c0.3,0.2,0.5,0.6,0.5,1.1
		c0,0.9-0.7,1.4-2,1.4h-2.4V311.4z M85.1,316h2.7c1.6,0,2.4,0.5,2.4,1.5c0,0.6-0.2,1-0.5,1.2c-0.4,0.2-0.9,0.3-1.6,0.3h-2.9V316z"/>
	<path fill="#FFFFFF" d="M101,311.4c0.6,0.2,1,0.4,1.3,0.7l1-1.4c-0.5-0.4-1.1-0.7-1.8-1c-0.7-0.2-1.4-0.3-2.1-0.3
		c-1.1,0-2,0.3-2.8,0.8c-0.7,0.6-1.1,1.3-1.1,2.4c0,1,0.3,1.8,1,2.3c0.3,0.3,0.7,0.5,1.1,0.6c0.4,0.2,1,0.3,1.8,0.5
		c0.8,0.2,1.4,0.4,1.7,0.6c0.3,0.2,0.5,0.6,0.5,1c0,0.4-0.2,0.8-0.5,1c-0.4,0.3-0.8,0.4-1.4,0.4c-1.2,0-2.4-0.5-3.5-1.5l-1.2,1.4
		c1.3,1.2,2.9,1.8,4.6,1.8c1.2,0,2.1-0.3,2.9-0.9c0.7-0.6,1.1-1.4,1.1-2.3c0-1-0.3-1.7-0.9-2.2c-0.6-0.5-1.4-0.9-2.6-1.2
		c-1.1-0.3-1.9-0.5-2.2-0.8c-0.3-0.2-0.5-0.6-0.5-1c0-0.4,0.2-0.8,0.5-1c0.3-0.2,0.8-0.3,1.3-0.3C99.9,311.1,100.4,311.2,101,311.4z
		"/>
	<path fill="#FFFFFF" d="M107.5,320.7h1.9v-11.1h-1.9V320.7z"/>
	<path fill="#FFFFFF" d="M121.6,311.4v-1.7H113v1.7h3.4v9.3h1.9v-9.3H121.6z"/>
	<path fill="#FFFFFF" d="M125.2,309.7v11.1h8V319h-6.1v-3h5.3v-1.7h-5.3v-2.9h5.9v-1.8H125.2z"/>
	<path fill="#FFFFFF" d="M6.6,336.9c-0.8-0.8-1.1-1.7-1.1-2.8c0-1.1,0.4-2,1.1-2.8c0.8-0.7,1.7-1.1,2.8-1.1c0.6,0,1.2,0.1,1.7,0.3
		c0.5,0.2,1,0.6,1.5,1.1l1.2-1.3c-1.1-1.3-2.6-1.9-4.3-1.9c-1.7,0-3.1,0.5-4.3,1.6c-1.1,1.1-1.7,2.5-1.7,4.1c0,1.6,0.6,3,1.7,4.1
		c1.1,1.1,2.5,1.6,4.2,1.6c1.7,0,3.1-0.6,4.3-1.9l-1.2-1.2c-0.5,0.5-1,0.8-1.5,1c-0.5,0.2-1,0.3-1.7,0.3
		C8.2,338,7.3,337.6,6.6,336.9z"/>
	<path fill="#FFFFFF" d="M26.2,334.1c0,1.1-0.4,2.1-1.1,2.8c-0.8,0.8-1.7,1.2-2.8,1.2c-1.1,0-2-0.4-2.8-1.2
		c-0.8-0.8-1.1-1.7-1.1-2.8c0-1.1,0.4-2.1,1.1-2.8c0.8-0.8,1.7-1.2,2.8-1.2c1.1,0,2,0.4,2.8,1.2C25.8,332,26.2,333,26.2,334.1z
		 M28.1,334.1c0-1.6-0.6-3-1.7-4.1c-1.1-1.1-2.5-1.6-4.1-1.6c-1.6,0-3,0.5-4.1,1.6c-1.1,1.1-1.7,2.5-1.7,4.1c0,1.6,0.6,3,1.7,4.1
		c1.1,1.1,2.5,1.6,4.1,1.6c1.6,0,3-0.5,4.1-1.6C27.6,337.1,28.1,335.7,28.1,334.1z"/>
	<path fill="#FFFFFF" d="M40.4,336.9l-6.4-8.3h-1.9v11.1h1.9v-8.1l6.3,8.1h2v-11.1h-1.9V336.9z"/>
	<path fill="#FFFFFF" d="M54.4,330.3v-1.7h-8.6v1.7h3.4v9.3H51v-9.3H54.4z"/>
	<path fill="#FFFFFF" d="M64.2,337.2l1.1,2.5h2l-4.9-11.1h-2l-4.9,11.1h2l1.1-2.5H64.2z M59.5,335.4l2-4.6l2,4.6H59.5z"/>
	<path fill="#FFFFFF" d="M70.4,339.7h1.9v-11.1h-1.9V339.7z"/>
	<path fill="#FFFFFF" d="M85.2,336.9l-6.4-8.3H77v11.1h1.9v-8.1l6.3,8.1h2v-11.1h-1.9V336.9z"/>
	<path fill="#FFFFFF" d="M96.7,330.4c0.6,0.2,1,0.4,1.3,0.7l1-1.4c-0.5-0.4-1.1-0.7-1.8-1c-0.7-0.2-1.4-0.3-2.1-0.3
		c-1.1,0-2,0.3-2.8,0.8c-0.7,0.6-1.1,1.3-1.1,2.4c0,1,0.3,1.8,1,2.3c0.3,0.3,0.7,0.5,1.1,0.6c0.4,0.2,1,0.3,1.8,0.5
		c0.8,0.2,1.4,0.4,1.7,0.6c0.3,0.2,0.5,0.6,0.5,1c0,0.4-0.2,0.8-0.5,1c-0.4,0.3-0.8,0.4-1.4,0.4c-1.2,0-2.4-0.5-3.5-1.5l-1.2,1.4
		c1.3,1.2,2.9,1.8,4.6,1.8c1.2,0,2.1-0.3,2.9-0.9c0.7-0.6,1.1-1.4,1.1-2.3c0-1-0.3-1.7-0.9-2.2c-0.6-0.5-1.4-0.9-2.6-1.2
		c-1.1-0.3-1.9-0.5-2.2-0.8c-0.3-0.2-0.5-0.6-0.5-1c0-0.4,0.2-0.8,0.5-1c0.3-0.2,0.8-0.3,1.3-0.3C95.6,330.1,96.2,330.2,96.7,330.4z
		"/>
</g>
<g>
	<path fill="#F70C36" d="M249.9,363.6c0.6-0.7,0.9-1.4,0.9-2.3c0-0.8-0.2-1.4-0.7-2c-0.5-0.5-1.1-0.9-1.8-1c0.2-0.1,0.4-0.2,0.4-0.2
		c0.1,0,0.2-0.1,0.4-0.3c0.6-0.5,0.9-1.2,0.9-2.2c0-0.8-0.3-1.5-0.8-2.2c-0.3-0.3-0.8-0.6-1.4-0.8c-0.6-0.2-1.3-0.3-2.2-0.3h-4.8
		v12.4h5.4C248,364.8,249.2,364.4,249.9,363.6L249.9,363.6z M243.6,354.7h1.3c0.8,0,1.4,0.1,1.7,0.3c0.3,0.2,0.5,0.5,0.5,1.1
		c0,0.6-0.2,0.9-0.6,1.1c-0.4,0.2-0.9,0.2-1.7,0.2h-1.3V354.7z M243.6,359.5h1.6c0.9,0,1.6,0.1,2,0.3c0.4,0.2,0.6,0.6,0.6,1.1
		c0,0.6-0.2,1-0.6,1.2c-0.4,0.2-1,0.3-1.8,0.3h-1.9V359.5z"/>
	<path fill="#F70C36" d="M257.5,359.2v-6.9h-2.8v7c0,1.8,0.5,3.2,1.5,4.1c1,1,2.3,1.5,3.8,1.5c1.6,0,2.8-0.5,3.8-1.4
		c1-1,1.5-2.4,1.5-4.2v-7h-2.8v6.9c0,1-0.2,1.8-0.7,2.4c-0.5,0.6-1.1,0.9-1.9,0.9s-1.4-0.3-1.9-0.9
		C257.7,361,257.5,360.2,257.5,359.2L257.5,359.2z"/>
	<path fill="#F70C36" d="M278.1,364.8v-2.5h-5.3v-10H270v12.4H278.1z"/>
	<path fill="#F70C36" d="M290,364.8v-2.5h-5.3v-10h-2.8v12.4H290z"/>
	<path fill="#F70C36" d="M297.8,354.5c1.2,0,2.3,0.4,3.3,1.2l1.4-2c-0.6-0.5-1.3-0.9-2.2-1.2c-0.8-0.3-1.7-0.4-2.5-0.4
		c-1.3,0-2.3,0.3-3.2,1c-0.8,0.6-1.3,1.6-1.3,2.7c0,1.2,0.3,2,1,2.6c0.7,0.6,1.7,1,3.2,1.3c0.9,0.2,1.5,0.4,1.8,0.7
		c0.3,0.2,0.5,0.5,0.5,0.9c0,0.4-0.1,0.7-0.4,0.9c-0.3,0.2-0.7,0.3-1.2,0.3c-1.1,0-2.4-0.6-3.7-1.8l-1.7,2c1.6,1.5,3.3,2.2,5.3,2.2
		c1.4,0,2.5-0.3,3.3-1c0.8-0.7,1.3-1.6,1.3-2.7c0-1.1-0.3-2-1-2.5c-0.7-0.6-1.6-1-2.7-1.3c-1.2-0.3-1.9-0.5-2.3-0.8
		c-0.3-0.2-0.5-0.5-0.5-0.9c0-0.4,0.1-0.7,0.4-0.9C297,354.6,297.3,354.5,297.8,354.5L297.8,354.5z"/>
	<path fill="#F70C36" d="M314.6,357.5h-4.9v-5.2h-2.8v12.4h2.8v-4.9h4.9v4.9h2.8v-12.4h-2.8V357.5z"/>
	<path fill="#F70C36" d="M322.3,364.8h2.8v-12.4h-2.8V364.8z"/>
	<path fill="#F70C36" d="M338.7,354.7v-2.4h-9.8v2.4h3.5v10h2.8v-10H338.7z"/>
	<path fill="#FFFFFF" d="M251.1,340.3l1.4,3.1h2.5l-6.1-13.8h-2.5l-6.1,13.8h2.5l1.4-3.1H251.1z M245.2,338.1l2.5-5.7l2.5,5.7H245.2
		z"/>
	<path fill="#FFFFFF" d="M268.9,340.5c-0.9,0.6-2,0.8-3.3,0.8c-1.3,0-2.4-0.4-3.3-1.3c-0.9-0.9-1.4-2.1-1.4-3.5
		c0-1.5,0.5-2.7,1.4-3.6c0.9-0.9,2.1-1.4,3.5-1.4c0.7,0,1.4,0.1,1.9,0.3c0.5,0.2,1.1,0.5,1.6,1l1.2-1.8c-1.3-1.2-3-1.7-5-1.7
		c-2,0-3.7,0.7-5.1,2.1c-1.4,1.4-2.1,3.1-2.1,5.1s0.7,3.8,2.1,5.1c1.4,1.3,3.1,2,5.1,2c2.4,0,4.3-0.7,5.6-2.2v-4.7h-2.3V340.5z"/>
	<path fill="#FFFFFF" d="M276.6,329.6v13.8h9.9v-2.2H279v-3.7h6.6v-2.1H279v-3.7h7.4v-2.2H276.6z"/>
	<path fill="#FFFFFF" d="M302.3,339.9l-8-10.3h-2.3v13.8h2.3v-10.1l7.8,10.1h2.5v-13.8h-2.3V339.9z"/>
	<path fill="#FFFFFF" d="M313.8,339.9c-0.9-0.9-1.4-2.1-1.4-3.5s0.5-2.6,1.4-3.5c0.9-0.9,2.1-1.4,3.5-1.4c0.8,0,1.5,0.1,2.1,0.4
		c0.6,0.3,1.2,0.7,1.9,1.3l1.5-1.6c-1.4-1.6-3.2-2.4-5.4-2.4c-2.1,0-3.9,0.7-5.3,2.1c-1.4,1.4-2.1,3.1-2.1,5.1s0.7,3.8,2.1,5.1
		c1.4,1.3,3.1,2,5.2,2c2.1,0,3.9-0.8,5.3-2.4l-1.5-1.5c-0.6,0.6-1.2,1-1.8,1.3c-0.6,0.3-1.3,0.4-2.1,0.4
		C315.8,341.3,314.7,340.8,313.8,339.9z"/>
	<path fill="#FFFFFF" d="M333.2,338l5.1-8.4h-2.5l-3.8,6.3l-3.8-6.3h-2.5l5.1,8.4v5.5h2.4V338z"/>
</g>
<path fill="#F70C36" d="M299.6,173.8c0.4-1,0.7-2.3,0.7-3.8c0-1.5-0.8-2.8-2.4-3.9c-0.6-0.5-1.3-0.8-2.1-1c-0.8-0.2-1.8-0.3-3.2-0.3
	c-1.4,0-2.8,0.5-4.4,1.5c-0.8,0.5-1.5,1.2-2,2c-0.5,0.8-0.8,2.1-0.8,3.7c0,1.6,0.7,3.3,2.1,4.9c0.6,0.8,1.4,1.4,2.3,1.8
	c0.9,0.4,1.8,0.6,2.8,0.5c1-0.1,1.9-0.4,2.8-0.9c0.9-0.5,1.7-1.1,2.4-1.8C298.6,175.7,299.2,174.8,299.6,173.8z"/>
<g>
	<path fill="#FFFFFF" d="M13.5,238.2c4.6,0,9.1-0.8,13.6-2.5c2.2-0.8,4.3-1.8,6.2-3.1c2-1.2,3.7-2.7,5.2-4.3
		c1.5-1.6,2.7-3.4,3.6-5.5c0.9-2,1.4-4.2,1.4-6.6c0.1-2.4-0.6-4.6-1.9-6.7c-1.3-2.1-3.3-3.7-5.9-4.8c5.4-2.7,9.9-6.1,13.3-10.4
		c3.8-4.6,5.6-9.3,5.6-14.1c0-5.3-1.7-9.4-5-12.4c-1.8-1.6-4.2-2.8-7.2-3.8c-3-0.9-5.9-1.4-8.7-1.4s-5.1,0.1-6.8,0.2
		c-9.1,1-16,3.1-20.7,6.4c-3.2,2.3-3.6,4.5-1.1,6.6c0.6,0.5,1.4,1,2.2,1.4c0.8,0.4,1.6,0.6,2.3,0.6c0.7,0,1.5-0.3,2.3-0.9
		c3-2.2,6.2-3.9,9.8-5.2c1.8-0.6,3.7-1.1,5.6-1.5c1.9-0.4,3.8-0.6,5.6-0.6c1.8,0,3.4,0.2,4.7,0.5c4.3,1.2,6.5,4,6.5,8.3
		c0,6.4-3,11.8-9.1,16.3c-5.6,4.1-12,6.4-19.3,6.9c2.9-5.9,6.6-12.4,11.1-19.7c0.6-1,0-2.2-1.8-3.8c-0.7-0.6-1.6-1.1-2.6-1.6
		c-1-0.4-2-0.7-3-0.7s-2,0.6-2.9,1.9c-5.4,7.3-9.6,15.8-12.7,25.3c-1.4,4.1-2.4,8-3,11.6c-0.7,3.6-1,6.7-1.1,9.2
		c-0.1,2.6,0.2,4.7,0.9,6.5C2.8,235.6,7,238.2,13.5,238.2L13.5,238.2z M18.2,208.1c2.7-0.7,4.8-1.1,6.3-1.2c1.3,0.1,2.4,0.4,3.5,0.8
		c3.6,1.4,5.4,4.1,5.3,8c-0.1,4.3-2.2,8.2-6.3,11.6c-1.8,1.5-3.7,2.7-5.8,3.5c-2.1,0.9-4.2,1.3-6.2,1.3c-2,0-3.6-0.6-4.7-1.8
		c-1.1-1.2-1.7-2.9-1.6-5c0.1-4.5,1.4-9.8,3.9-15.9C13.6,209.3,15.5,208.8,18.2,208.1z"/>
	<path fill="#FFFFFF" d="M98.6,228.9c-0.9,0.5-2,0.7-3.4,0.7c-1.5,0-2.2-1.2-2.2-3.7c0-0.5,0.1-1.5,0.2-3
		c0.6-4.2,4.8-14.5,12.7-30.9c0.5-1,0-2-1.3-3c-0.6-0.4-1.3-0.8-2.1-1c-0.8-0.2-1.7-0.4-2.8-0.4c-1.1,0-2.1,0.7-3.2,2.1
		c-0.5,0.5-4.1,6.9-10.9,18.9c-1.1,2-2.9,4.6-5.3,7.9c-1.2,1.7-2.5,3.3-3.8,4.8c-1.3,1.6-2.5,2.9-3.7,4.1c-1.2,1.2-2.3,2.1-3.3,2.8
		c-1,0.7-1.9,1.1-2.6,1.1c-0.8,0-1.3-0.2-1.6-0.6c-0.3-0.4-0.4-1-0.4-1.9c0-0.9,0.5-2.5,1.5-4.7l1.8-3.7c0.8-1.7,2.3-5.1,4.5-10.3
		c0.8-2,1.5-3.9,2.2-5.8c0.7-1.9,1.2-3.6,1.6-5.2c0.4-1.6,0.6-3,0.6-4.3c0-1.3-0.5-2.5-1.6-3.5c-0.5-0.5-1.2-0.9-2-1.3
		c-0.8-0.3-2-0.5-3.6-0.5c-1.6,0-3.2,0.4-4.7,1.1c-0.7,0.4-1.3,0.8-1.8,1.4c-0.5,0.5-0.7,1.1-0.7,1.6c0,0.6,0.2,1,0.6,1.2
		c1.1,0.6,1.8,1.2,2.2,1.8c0.9,1.4-0.4,5.8-3.7,13.2l-2.6,5.8c-0.9,1.9-1.7,3.8-2.4,5.6c-0.7,1.8-1.3,3.6-1.8,5.3
		c-0.5,1.7-0.7,3.2-0.7,4.6c0,1.4,0.2,2.6,0.6,3.6c1.3,3.4,4,5.2,8,5.2c2.6,0,5.5-1.3,8.7-4c1.5-1.2,3.2-2.9,5.2-5.1
		c2-2.2,5.5-6.6,10.4-13.3c-2.7,6.6-4,11.4-4,14.6c0,2.5,1,4.6,2.9,6.4c1.1,1,2.7,1.4,4.7,1.4c2.5,0,4.7-0.6,6.6-1.8
		c2.8-1.9,4.1-4.2,4.1-7c0-0.7-0.4-1.1-1.1-1.1C100.1,228.2,99.5,228.4,98.6,228.9z"/>
	<path fill="#FFFFFF" d="M117.1,237.6c1,0.4,2.3,0.6,3.9,0.6c1.6,0,3.4-0.7,5.4-2c2.9-1.9,4.4-4.3,4.4-7.2c0-0.7-0.3-1-1-1
		c-0.3,0-1,0.3-2.1,0.9c-1.1,0.6-2.3,0.9-3.7,0.9c-1.4,0-2.1-0.9-2.1-2.6c0-3.2,1.9-10.4,5.7-21.6l6.7-19.6c1.1-3.3,2.1-6.4,3-9.3
		c0.9-2.9,1.6-5.7,2.1-8.2c0.5-2.5,0.9-4.6,0.9-6.3c0.1-1.7-0.8-3.3-2.7-4.7c-1-0.7-2.2-1.1-3.7-1.1c-2.3,0-3.7,1.4-4,4.1
		c-0.9,9.1-4.2,22.1-10,38.8l-4.1,12c-1.2,3.7-2.2,7-3,9.9c-0.8,2.9-1.2,5.2-1.2,6.9c0,1.7,0.2,3.2,0.7,4.5c0.5,1.3,1.1,2.4,2,3.2
		C115.2,236.6,116.1,237.2,117.1,237.6z"/>
	<path fill="#FFFFFF" d="M146.7,237.6c1,0.4,2.3,0.6,3.9,0.6c1.6,0,3.4-0.7,5.4-2c2.9-1.9,4.4-4.3,4.4-7.2c0-0.7-0.3-1-1-1
		c-0.3,0-1,0.3-2.1,0.9c-1.1,0.6-2.3,0.9-3.7,0.9c-1.4,0-2.1-0.9-2.1-2.6c0-3.2,1.9-10.4,5.7-21.6l6.7-19.6c1.1-3.3,2.1-6.4,3-9.3
		c0.9-2.9,1.6-5.7,2.1-8.2c0.5-2.5,0.9-4.6,0.9-6.3c0.1-1.7-0.8-3.3-2.7-4.7c-1-0.7-2.2-1.1-3.7-1.1c-2.3,0-3.7,1.4-4,4.1
		c-0.9,9.1-4.2,22.1-10,38.8l-4.1,12c-1.2,3.7-2.2,7-3,9.9c-0.8,2.9-1.2,5.2-1.2,6.9c0,1.7,0.2,3.2,0.7,4.5c0.5,1.3,1.1,2.4,2,3.2
		C144.8,236.6,145.7,237.2,146.7,237.6z"/>
	<path fill="#FFFFFF" d="M171.9,235.1c2.4,2,5.7,3,9.8,3c4.3,0,8.3-1.3,11.8-3.9c1.6-1.2,3-2.6,4-4.3c1-1.7,1.5-3.7,1.5-6.2
		c0-2.5-1-5.3-3-8.6c-0.8-1.4-1.8-2.7-2.8-4c-1-1.3-1.9-2.5-2.8-3.7c-0.9-1.2-1.6-2.4-2.1-3.7c-0.6-1.2-0.9-2.7-0.9-4.4
		c0-1.7,0.6-3.1,1.9-4.3c0.6-0.5,1.3-0.9,2.1-1.2c0.8-0.3,1.8-0.4,3.1-0.4c1.2,0,2.4,0.5,3.5,1.6c0.5,0.5,1,1.1,1.3,1.9
		c0.3,0.7,0.5,1.5,0.5,2.4c0,0.9-0.1,1.7-0.4,2.5c-0.3,0.8-0.2,1.5,0.2,2.1c0.4,0.6,1,1,1.8,1.2c1.7,0.4,3.5-0.1,5.2-1.5
		c1.9-1.5,2.9-3.5,2.9-6.1c0-2.4-1.1-4.6-3.3-6.5c-2.7-2.3-6.4-3.5-11.1-3.5c-5.4,0-9.9,1.7-13.4,5c-3.1,2.9-4.6,6.2-4.6,9.8
		c0,4.3,1.9,9.1,5.8,14.2l2.8,3.9c0.9,1.2,1.6,2.3,2.2,3.4c0.6,1.1,0.9,2.3,0.9,3.5c0,1.3-0.6,2.4-1.7,3.3c-0.5,0.4-1.1,0.7-1.7,0.9
		c-0.6,0.2-1.4,0.3-2.2,0.3c-0.9,0-1.7-0.2-2.5-0.7c-2.2-1.3-3.3-3.7-3.3-7c0-1.3-0.6-2-1.9-2c-1.5,0-2.9,0.6-4.2,1.9
		c-0.6,0.6-1.2,1.3-1.6,2.1c-0.4,0.9-0.7,1.8-0.7,2.8C168.9,231.5,169.9,233.4,171.9,235.1L171.9,235.1z"/>
	<path fill="#FFFFFF" d="M251.8,198.6c0,1.2-0.5,2.8-1.5,4.9l-5.2,11.1c-2.4,5.5-3.6,10.1-3.6,13.7c0,3.4,0.9,5.9,2.8,7.7
		c0.8,0.8,1.8,1.3,2.9,1.7c1.1,0.3,2.4,0.5,4.1,0.5c1.6,0,3.5-0.7,5.5-2c2.9-1.9,4.3-4.3,4.3-7.2c0-0.7-0.3-1-1-1
		c-0.3,0-1,0.3-2.1,0.9c-1.1,0.6-2.3,0.9-3.7,0.9c-1.4,0-2.1-0.9-2.1-2.6c0-2.5,1.1-6.3,3.4-11.4l2.4-5.1c0.8-1.7,1.5-3.4,2.2-5
		c0.7-1.6,1.2-3.2,1.7-4.8c0.4-1.6,0.7-3.3,0.7-5.3c0-1.9-0.7-3.7-2.2-5.4c-1.5-1.7-3.6-2.6-6.1-2.6c-3.1,0-5.7,0.9-7.7,2.7
		c-1,0.8-2.1,2-3.5,3.4c-1.4,1.5-5,6.1-10.9,13.8c-0.8,1-1.4,1.8-1.9,2.4c0.7-1.5,2.7-6.5,5.8-15.2c1-2.9,2.6-7.5,4.7-14
		c0.8-2.5,1.5-5,2.1-7.3c0.6-2.3,1.1-4.4,1.5-6.4c0.4-2,0.6-3.7,0.7-5.3c0.1-1.6-0.8-3.1-2.7-4.4c-1-0.7-2.2-1.1-3.7-1.1
		c-2.3,0-3.6,1.4-4,4.1c-0.8,5.6-2.1,11.9-3.9,18.9c-4.9,19-10.3,34.7-16.4,47.1l-1.9,3.9c-0.7,1.4-1,2.4-1,2.8
		c0,1.2,0.6,2.3,1.8,3.4c0.6,0.5,1.3,0.9,2.1,1.2c0.8,0.3,1.6,0.5,2.5,0.5c0.9,0,1.5-0.3,2-0.8c0.5-0.6,1.1-1.5,1.8-2.9l2.6-5.6
		c1.1-2.3,2.5-5.3,4.4-8.8l7.7-10.1l4-4.9c4.6-5.4,7.7-8.1,9.5-8.1C251.1,196.9,251.8,197.5,251.8,198.6z"/>
	<path fill="#FFFFFF" d="M286.4,229.2c-0.7,0.4-1.8,0.5-3.1,0.5c-1.4,0-2.1-0.7-2.1-2.1c0-2.2,1.1-5.7,3.2-10.6l2.9-6.7
		c1.1-2.3,2.3-5.3,3.9-9c1.5-3.7,2.3-7,2.3-9.9c0-2.5-2.4-3.7-7.1-3.7c-1.9,0-3.6,0.4-5.1,1.1c-0.7,0.4-1.3,0.8-1.7,1.4
		c-0.4,0.5-0.7,1.1-0.7,1.6c0,0.6,0.2,1,0.5,1.2l1,0.7c0.4,0.3,0.7,0.6,1,1.1c0.3,0.5,0.5,1.4,0.5,2.9c0,1.4-0.9,4.4-2.8,9l-2.6,6.1
		c-0.9,2.1-1.8,4.2-2.6,6.2c-0.8,2-1.4,4-2,5.8c-0.5,1.8-0.8,3.5-0.8,5c0,1.5,0.3,2.8,0.8,3.9c1.4,3,3.9,4.5,7.7,4.5
		c3.2,0,5.8-1.1,7.8-3.4c1.3-1.5,2-3,2-4.5c0-1.1-0.4-1.6-1.3-1.6C287.7,228.7,287.2,228.8,286.4,229.2z"/>
	<path fill="#FFFFFF" d="M328.5,225.8c-0.6,0.5-1.4,1-2.2,1.6c-0.9,0.6-1.9,1.1-3,1.6c-1.2,0.5-2.4,0.7-3.9,0.7
		c-1.4,0-2.4-0.3-2.9-0.9c-0.5-0.6-0.8-1.5-0.8-2.6c0-4,1.8-11,5.5-21.1l3.3-8.5h0.4c10,0,15.1-2.1,15.1-6.4c0-0.7-0.5-1-1.4-1
		c-0.9,0-1.7,0-2.3,0l-2.8,0c-1.2,0-2.8,0-4.8,0h-1.2l3.6-7.8c0.4-0.8,0.6-1.6,0.6-2.2c0-1.2-0.5-2.3-1.5-3.2c-0.5-0.4-1-0.7-1.5-1
		c-0.6-0.2-1.3-0.3-2.2-0.3s-1.7,0.3-2.4,0.8c-1.5,1.1-4,5.8-7.4,13.9h-3.8c-1.2,0-2.3,0.5-3.4,1.4c-0.5,0.4-0.9,0.9-1.2,1.3
		c-0.3,0.5-0.5,0.8-0.5,1.2s0,0.7,0.1,0.9c0.3,1,2.3,1.6,6,1.9c-6.6,17.8-9,29.5-7.4,35c1.4,4.6,4.7,6.9,9.8,6.9c3,0,6-0.9,8.9-2.8
		c2.6-1.7,4.3-3.4,5.2-5.3c0.6-1,1-2,1-3.1c0-1.3-0.5-1.9-1.4-1.9l0,0C329.7,225,329.2,225.3,328.5,225.8z"/>
</g>
<linearGradient id="SVGID_1_" gradientUnits="userSpaceOnUse" x1="27.9492" y1="76.4236" x2="300.8235" y2="76.4236">
	<stop  offset="0" style="stop-color:#FFFFFF"/>
	<stop  offset="1" style="stop-color:#F70C36"/>
</linearGradient>
<path fill-rule="evenodd" clip-rule="evenodd" fill="url(#SVGID_1_)" d="M300.7,143.2l-3.5-0.4L300.7,143.2l-0.6,5.1
	c-0.3,2.8-2.8,4.8-5.6,4.5c-2.8-0.3-4.8-2.8-4.5-5.6l0.6-5.1l0,0c2.9-66.5-46.3-124.7-113.4-132.1S49.4,48.9,37.8,114.4l-9.3-1
	C40.9,42.7,106.3-7.1,178.6,0.8S303.9,71.6,300.7,143.2z M37.8,114.4l-0.6,5.5c-0.3,2.6-2.6,4.4-5.1,4.1s-4.4-2.6-4.1-5.1l0.6-5.5
	L37.8,114.4z"/>
</svg>
